<svg width="24px" height="24px" xmlns="http://www.w3.org/2000/svg"><path d="M8.28246827,0 C7.80646664,2.08225162 6.65955506,3.90600035 4.84173355,5.47124619 C3.55764364,6.57691931 1.99140334,8.00973565 1.14197221,9.57026011 C0.252744998,11.2038956 1.66214969e-14,12.780314 0,14.3543096 C-3.25528999e-14,17.4318589 3.14855796,22.4298665 9.72855796,22.4298665 C16.308558,22.4298665 19.4571159,17.121615 19.4571159,13.5997351 C19.4571159,9.70451412 17.7516377,7.0764434 16.6573676,5.56019368 C15.9278542,4.54936053 15.2027856,3.57440532 14.4821616,2.63532806 C14.4347385,3.27980211 14.2122084,4.09978985 13.8145711,5.0952913 C13.4169339,6.09079275 12.4787436,6.8975844 11,7.51566624 C11.5975555,5.09786096 11.5069444,3.32900769 10.7281666,2.20910645 C9.94938888,1.08920522 9.13415609,0.352836398 8.28246827,0 Z" stroke="#FFFFFF"></path></svg>